<svg aria-hidden="true" style="position:absolute;width:0;height:0" xmlns="http://www.w3.org/2000/svg" overflow="hidden"><defs><symbol id="cart" viewBox="0 0 38 32"><path fill="var(--color1, #fff)" d="M37.815 8.881h.002l-5.28 11.733a1.764 1.764 0 0 1-1.481 1.034h-.006l-15.206 1.013.879 2.509H33.28a3.52 3.52 0 1 1-3.52 3.522H13.333a3.52 3.52 0 1 1-3.52-3.522h3.181L6.219 5.812H2.187a1.76 1.76 0 0 1 0-3.52h5.28c.768 0 1.414.495 1.655 1.18l.006-.002 1.024 2.929h26.061a1.76 1.76 0 0 1 1.598 2.492l.005-.011zM11.386 9.92l3.253 9.295 15.123-1.009 3.729-8.286H11.385z"/></symbol><symbol id="search" viewBox="0 0 32 32"><path fill="var(--color1, #fff)" d="M30.786 26.636a2.933 2.933 0 1 1-4.149 4.147l-8.597-8.596a11.542 11.542 0 0 1-5.95 1.634C5.61 23.821.357 18.568.357 12.088S5.61.355 12.09.355s11.733 5.253 11.733 11.733a11.617 11.617 0 0 1-1.663 6.003l.029-.053 8.597 8.597zM12.089 3.287a8.802 8.802 0 0 0 .001 17.602h.001a8.8 8.8 0 0 0-.001-17.6h-.001z"/></symbol></defs></svg>